<svg width="33" height="33" viewBox="0 0 33 33" fill="none" xmlns="http://www.w3.org/2000/svg">
<g clip-path="url(#clip0_121_2155)">
<circle cx="16.5" cy="16.5" r="16.5" fill="#580DA3"/>
<path d="M25.9308 14.9886C25.7916 15.133 25.603 15.2141 25.4063 15.2141C25.2096 15.2141 25.021 15.133 24.8818 14.9886L17.2422 7.05406V27.8073C17.2422 28.0118 17.164 28.2079 17.0248 28.3525C16.8857 28.497 16.6969 28.5783 16.5 28.5783C16.3032 28.5783 16.1144 28.497 15.9752 28.3525C15.836 28.2079 15.7579 28.0118 15.7579 27.8073V7.05406L8.11827 14.9886C7.97758 15.1248 7.79149 15.199 7.59921 15.1954C7.40693 15.1919 7.22348 15.111 7.0875 14.9697C6.95152 14.8285 6.87363 14.6379 6.87023 14.4382C6.86684 14.2384 6.93821 14.0451 7.06931 13.899L15.9756 4.64735C16.1147 4.50297 16.3034 4.42188 16.5 4.42188C16.6967 4.42188 16.8854 4.50297 17.0245 4.64735L25.9308 13.899C26.0698 14.0436 26.1478 14.2395 26.1478 14.4438C26.1478 14.6481 26.0698 14.8441 25.9308 14.9886Z" fill="white"/>
</g>
<defs>
<clipPath id="clip0_121_2155">
<rect width="33" height="33" fill="white"/>
</clipPath>
</defs>
</svg>
