<svg width="33" height="33" viewBox="0 0 33 33" fill="none" xmlns="http://www.w3.org/2000/svg">
<g clip-path="url(#clip0_342_1442)">
<circle cx="16.5" cy="16.5" r="16.5" fill="white"/>
<path d="M25.9307 14.9889C25.7916 15.1333 25.6029 15.2143 25.4062 15.2143C25.2096 15.2143 25.0209 15.1333 24.8818 14.9889L17.2422 7.0543V27.8075C17.2422 28.012 17.164 28.2081 17.0248 28.3527C16.8856 28.4973 16.6968 28.5785 16.5 28.5785C16.3031 28.5785 16.1144 28.4973 15.9752 28.3527C15.836 28.2081 15.7578 28.012 15.7578 27.8075V7.0543L8.11821 14.9889C7.97752 15.1251 7.79143 15.1992 7.59915 15.1957C7.40687 15.1922 7.22342 15.1112 7.08744 14.97C6.95146 14.8287 6.87356 14.6382 6.87017 14.4384C6.86678 14.2387 6.93815 14.0454 7.06925 13.8992L15.9755 4.64759C16.1147 4.50321 16.3033 4.42212 16.5 4.42212C16.6967 4.42212 16.8853 4.50321 17.0245 4.64759L25.9307 13.8992C26.0697 14.0438 26.1478 14.2397 26.1478 14.4441C26.1478 14.6484 26.0697 14.8443 25.9307 14.9889Z" fill="#580DA3"/>
</g>
<defs>
<clipPath id="clip0_342_1442">
<rect width="33" height="33" fill="white"/>
</clipPath>
</defs>
</svg>
