<svg width="89" height="187" viewBox="0 0 89 187" fill="none" xmlns="http://www.w3.org/2000/svg">
<g id="menu p" clip-path="url(#clip0_17_7015)">
<g id="Frame 25">
<path id="&#208;&#160;&#208;&#176;&#208;&#183;&#208;&#180;&#208;&#181;&#208;&#187;&#209;&#139;" d="M15.3941 30.432C16.4981 30.432 17.3021 30.672 17.8061 31.152C18.3181 31.624 18.5741 32.276 18.5741 33.108C18.5741 33.484 18.5181 33.844 18.4061 34.188C18.2941 34.524 18.1061 34.828 17.8421 35.1C17.5861 35.364 17.2461 35.572 16.8221 35.724C16.3981 35.876 15.8741 35.952 15.2501 35.952H14.4701V39H12.6581V30.432H15.3941ZM15.2981 31.92H14.4701V34.464H15.0701C15.4141 34.464 15.7101 34.42 15.9581 34.332C16.2061 34.244 16.3981 34.104 16.5341 33.912C16.6701 33.72 16.7381 33.472 16.7381 33.168C16.7381 32.744 16.6221 32.432 16.3901 32.232C16.1581 32.024 15.7941 31.92 15.2981 31.92ZM22.7373 32.316C23.6173 32.316 24.2893 32.508 24.7533 32.892C25.2253 33.268 25.4613 33.848 25.4613 34.632V39H24.2133L23.8653 38.112H23.8173C23.6333 38.344 23.4413 38.536 23.2413 38.688C23.0493 38.84 22.8253 38.948 22.5693 39.012C22.3213 39.084 22.0133 39.12 21.6453 39.12C21.2613 39.12 20.9133 39.048 20.6013 38.904C20.2973 38.752 20.0573 38.524 19.8813 38.22C19.7053 37.908 19.6173 37.516 19.6173 37.044C19.6173 36.348 19.8613 35.836 20.3493 35.508C20.8373 35.172 21.5693 34.988 22.5453 34.956L23.6853 34.92V34.632C23.6853 34.288 23.5933 34.036 23.4093 33.876C23.2333 33.716 22.9853 33.636 22.6653 33.636C22.3453 33.636 22.0333 33.684 21.7293 33.78C21.4253 33.868 21.1213 33.98 20.8173 34.116L20.2293 32.904C20.5813 32.72 20.9693 32.576 21.3933 32.472C21.8253 32.368 22.2733 32.316 22.7373 32.316ZM22.9893 35.988C22.4133 36.004 22.0133 36.108 21.7893 36.3C21.5653 36.492 21.4533 36.744 21.4533 37.056C21.4533 37.328 21.5333 37.524 21.6933 37.644C21.8533 37.756 22.0613 37.812 22.3173 37.812C22.7013 37.812 23.0253 37.7 23.2893 37.476C23.5533 37.244 23.6853 36.92 23.6853 36.504V35.964L22.9893 35.988ZM29.6795 32.328C30.1515 32.328 30.5915 32.392 30.9995 32.52C31.4155 32.64 31.7475 32.828 31.9955 33.084C32.2515 33.34 32.3795 33.668 32.3795 34.068C32.3795 34.46 32.2595 34.772 32.0195 35.004C31.7875 35.236 31.4715 35.404 31.0715 35.508V35.568C31.3515 35.632 31.6035 35.724 31.8275 35.844C32.0515 35.956 32.2275 36.112 32.3555 36.312C32.4915 36.504 32.5595 36.764 32.5595 37.092C32.5595 37.452 32.4435 37.788 32.2115 38.1C31.9875 38.404 31.6355 38.652 31.1555 38.844C30.6835 39.028 30.0755 39.12 29.3315 39.12C28.9795 39.12 28.6475 39.104 28.3355 39.072C28.0235 39.04 27.7395 38.996 27.4835 38.94C27.2275 38.876 27.0035 38.8 26.8115 38.712V37.236C27.0835 37.364 27.4155 37.48 27.8075 37.584C28.2075 37.688 28.6315 37.74 29.0795 37.74C29.4075 37.74 29.6995 37.716 29.9555 37.668C30.2195 37.62 30.4275 37.54 30.5795 37.428C30.7395 37.316 30.8195 37.168 30.8195 36.984C30.8195 36.808 30.7515 36.664 30.6155 36.552C30.4795 36.432 30.2755 36.344 30.0035 36.288C29.7315 36.232 29.3835 36.204 28.9595 36.204H28.2635V34.968H28.9235C29.5155 34.968 29.9715 34.92 30.2915 34.824C30.6195 34.728 30.7835 34.548 30.7835 34.284C30.7835 34.076 30.6795 33.92 30.4715 33.816C30.2635 33.704 29.9235 33.648 29.4515 33.648C29.1395 33.648 28.7995 33.684 28.4315 33.756C28.0635 33.828 27.7155 33.932 27.3875 34.068L26.8595 32.82C27.2355 32.676 27.6475 32.56 28.0955 32.472C28.5435 32.376 29.0715 32.328 29.6795 32.328ZM39.8397 32.448V37.692H40.7997V41.352H39.1917V39H34.7877V41.352H33.1797V37.692H33.7317C34.0197 37.252 34.2637 36.752 34.4637 36.192C34.6637 35.624 34.8237 35.02 34.9437 34.38C35.0637 33.74 35.1517 33.096 35.2077 32.448H39.8397ZM36.7077 33.792C36.6437 34.272 36.5637 34.74 36.4677 35.196C36.3717 35.644 36.2517 36.076 36.1077 36.492C35.9717 36.908 35.8037 37.308 35.6037 37.692H38.0517V33.792H36.7077ZM44.6165 32.328C45.2245 32.328 45.7445 32.444 46.1765 32.676C46.6165 32.908 46.9565 33.244 47.1965 33.684C47.4365 34.124 47.5565 34.664 47.5565 35.304V36.168H43.3325C43.3485 36.672 43.4965 37.068 43.7765 37.356C44.0645 37.644 44.4605 37.788 44.9645 37.788C45.3885 37.788 45.7725 37.748 46.1165 37.668C46.4605 37.58 46.8165 37.448 47.1845 37.272V38.652C46.8645 38.812 46.5245 38.928 46.1645 39C45.8125 39.08 45.3845 39.12 44.8805 39.12C44.2245 39.12 43.6445 39 43.1405 38.76C42.6365 38.512 42.2405 38.14 41.9525 37.644C41.6645 37.148 41.5205 36.524 41.5205 35.772C41.5205 35.004 41.6485 34.368 41.9045 33.864C42.1685 33.352 42.5325 32.968 42.9965 32.712C43.4605 32.456 44.0005 32.328 44.6165 32.328ZM44.6285 33.6C44.2845 33.6 43.9965 33.712 43.7645 33.936C43.5405 34.16 43.4085 34.508 43.3685 34.98H45.8765C45.8765 34.716 45.8285 34.48 45.7325 34.272C45.6445 34.064 45.5085 33.9 45.3245 33.78C45.1405 33.66 44.9085 33.6 44.6285 33.6ZM54.8743 39H53.0863V33.792H51.4423C51.3623 34.752 51.2623 35.572 51.1423 36.252C51.0303 36.924 50.8863 37.472 50.7103 37.896C50.5423 38.32 50.3263 38.632 50.0623 38.832C49.7983 39.024 49.4743 39.12 49.0903 39.12C48.8823 39.12 48.6943 39.104 48.5263 39.072C48.3583 39.04 48.2063 38.992 48.0703 38.928V37.5C48.1583 37.532 48.2503 37.56 48.3463 37.584C48.4423 37.608 48.5423 37.62 48.6463 37.62C48.7583 37.62 48.8623 37.576 48.9583 37.488C49.0623 37.4 49.1583 37.244 49.2463 37.02C49.3423 36.796 49.4303 36.488 49.5103 36.096C49.5903 35.704 49.6623 35.212 49.7263 34.62C49.7983 34.02 49.8623 33.296 49.9183 32.448H54.8743V39ZM56.7407 39V32.448H58.5287V34.98H59.3927C60.0647 34.98 60.6167 35.052 61.0487 35.196C61.4807 35.332 61.8007 35.544 62.0087 35.832C62.2247 36.12 62.3327 36.48 62.3327 36.912C62.3327 37.336 62.2327 37.704 62.0327 38.016C61.8407 38.328 61.5327 38.572 61.1087 38.748C60.6927 38.916 60.1407 39 59.4527 39H56.7407ZM59.3567 37.764C59.7087 37.764 59.9927 37.7 60.2087 37.572C60.4327 37.444 60.5447 37.232 60.5447 36.936C60.5447 36.68 60.4407 36.496 60.2327 36.384C60.0327 36.272 59.7327 36.216 59.3327 36.216H58.5287V37.764H59.3567ZM63.2807 39V32.448H65.0687V39H63.2807Z" fill="white"/>
<path id="&#208;&#154;&#208;&#176;&#209;&#130;&#208;&#176;&#208;&#187;&#208;&#190;&#208;&#179;" d="M43.5086 71H42.7526L40.4916 68.466V71H39.8616V66.002H40.4916V68.424L42.6966 66.002H43.4106L41.2406 68.431L43.5086 71ZM45.5258 67.185C45.9831 67.185 46.3214 67.2853 46.5408 67.486C46.7601 67.6867 46.8698 68.0063 46.8698 68.445V71H46.4218L46.3028 70.468H46.2748C46.1674 70.6033 46.0554 70.7177 45.9388 70.811C45.8268 70.8997 45.6961 70.965 45.5468 71.007C45.4021 71.049 45.2248 71.07 45.0148 71.07C44.7908 71.07 44.5878 71.0303 44.4058 70.951C44.2284 70.8717 44.0884 70.7503 43.9858 70.587C43.8831 70.419 43.8318 70.209 43.8318 69.957C43.8318 69.5837 43.9788 69.2967 44.2728 69.096C44.5668 68.8907 45.0194 68.7787 45.6308 68.76L46.2678 68.739V68.515C46.2678 68.2023 46.2001 67.9853 46.0648 67.864C45.9294 67.7427 45.7381 67.682 45.4908 67.682C45.2948 67.682 45.1081 67.7123 44.9308 67.773C44.7534 67.829 44.5878 67.8943 44.4338 67.969L44.2448 67.507C44.4081 67.4183 44.6018 67.3437 44.8258 67.283C45.0498 67.2177 45.2831 67.185 45.5258 67.185ZM45.7078 69.187C45.2411 69.2057 44.9168 69.2803 44.7348 69.411C44.5574 69.5417 44.4688 69.726 44.4688 69.964C44.4688 70.174 44.5318 70.328 44.6578 70.426C44.7884 70.524 44.9541 70.573 45.1548 70.573C45.4721 70.573 45.7358 70.4867 45.9458 70.314C46.1558 70.1367 46.2608 69.866 46.2608 69.502V69.166L45.7078 69.187ZM50.6186 67.766H49.3936V71H48.7846V67.766H47.5736V67.248H50.6186V67.766ZM52.7787 67.185C53.236 67.185 53.5744 67.2853 53.7937 67.486C54.013 67.6867 54.1227 68.0063 54.1227 68.445V71H53.6747L53.5557 70.468H53.5277C53.4204 70.6033 53.3084 70.7177 53.1917 70.811C53.0797 70.8997 52.949 70.965 52.7997 71.007C52.655 71.049 52.4777 71.07 52.2677 71.07C52.0437 71.07 51.8407 71.0303 51.6587 70.951C51.4814 70.8717 51.3414 70.7503 51.2387 70.587C51.136 70.419 51.0847 70.209 51.0847 69.957C51.0847 69.5837 51.2317 69.2967 51.5257 69.096C51.8197 68.8907 52.2724 68.7787 52.8837 68.76L53.5207 68.739V68.515C53.5207 68.2023 53.453 67.9853 53.3177 67.864C53.1824 67.7427 52.991 67.682 52.7437 67.682C52.5477 67.682 52.361 67.7123 52.1837 67.773C52.0064 67.829 51.8407 67.8943 51.6867 67.969L51.4977 67.507C51.661 67.4183 51.8547 67.3437 52.0787 67.283C52.3027 67.2177 52.536 67.185 52.7787 67.185ZM52.9607 69.187C52.494 69.2057 52.1697 69.2803 51.9877 69.411C51.8104 69.5417 51.7217 69.726 51.7217 69.964C51.7217 70.174 51.7847 70.328 51.9107 70.426C52.0414 70.524 52.207 70.573 52.4077 70.573C52.725 70.573 52.9887 70.4867 53.1987 70.314C53.4087 70.1367 53.5137 69.866 53.5137 69.502V69.166L52.9607 69.187ZM58.1375 71H57.5145V67.759H56.4085C56.3619 68.3517 56.3035 68.858 56.2335 69.278C56.1635 69.6933 56.0749 70.0317 55.9675 70.293C55.8602 70.5543 55.7319 70.7457 55.5825 70.867C55.4332 70.9883 55.2582 71.049 55.0575 71.049C54.9969 71.049 54.9362 71.0443 54.8755 71.035C54.8195 71.0303 54.7729 71.0187 54.7355 71V70.538C54.7635 70.5473 54.7939 70.5543 54.8265 70.559C54.8592 70.5637 54.8919 70.566 54.9245 70.566C55.0272 70.566 55.1205 70.524 55.2045 70.44C55.2885 70.356 55.3632 70.2277 55.4285 70.055C55.4985 69.8823 55.5615 69.6653 55.6175 69.404C55.6735 69.138 55.7225 68.8253 55.7645 68.466C55.8065 68.1067 55.8439 67.7007 55.8765 67.248H58.1375V71ZM62.5904 69.117C62.5904 69.4297 62.5484 69.7073 62.4644 69.95C62.3851 70.188 62.2684 70.391 62.1144 70.559C61.9651 70.727 61.7807 70.8553 61.5614 70.944C61.3467 71.028 61.1064 71.07 60.8404 71.07C60.5931 71.07 60.3644 71.028 60.1544 70.944C59.9444 70.8553 59.7624 70.727 59.6084 70.559C59.4544 70.391 59.3331 70.188 59.2444 69.95C59.1604 69.7073 59.1184 69.4297 59.1184 69.117C59.1184 68.7017 59.1884 68.3517 59.3284 68.067C59.4684 67.7777 59.6691 67.5583 59.9304 67.409C60.1917 67.255 60.5021 67.178 60.8614 67.178C61.2021 67.178 61.5007 67.255 61.7574 67.409C62.0187 67.5583 62.2217 67.7777 62.3664 68.067C62.5157 68.3517 62.5904 68.7017 62.5904 69.117ZM59.7554 69.117C59.7554 69.411 59.7927 69.6677 59.8674 69.887C59.9467 70.1017 60.0681 70.2673 60.2314 70.384C60.3947 70.5007 60.6024 70.559 60.8544 70.559C61.1064 70.559 61.3141 70.5007 61.4774 70.384C61.6407 70.2673 61.7597 70.1017 61.8344 69.887C61.9137 69.6677 61.9534 69.411 61.9534 69.117C61.9534 68.8183 61.9137 68.564 61.8344 68.354C61.7551 68.144 61.6337 67.983 61.4704 67.871C61.3117 67.7543 61.1041 67.696 60.8474 67.696C60.4647 67.696 60.1871 67.822 60.0144 68.074C59.8417 68.326 59.7554 68.6737 59.7554 69.117ZM65.8557 67.248V67.766H64.1827V71H63.5667V67.248H65.8557Z" fill="white"/>
<path id="&#208;&#159;&#209;&#128;&#208;&#190;&#209;&#132;&#208;&#184;&#208;&#187;&#209;&#140;" d="M33.0997 102V97.002H37.0547V102H35.9977V97.884H34.1567V102H33.0997ZM40.3595 98.108C40.7889 98.108 41.1365 98.276 41.4025 98.612C41.6685 98.9433 41.8015 99.4333 41.8015 100.082C41.8015 100.516 41.7385 100.882 41.6125 101.181C41.4865 101.475 41.3139 101.697 41.0945 101.846C40.8752 101.995 40.6209 102.07 40.3315 102.07C40.1495 102.07 39.9909 102.047 39.8555 102C39.7249 101.953 39.6129 101.893 39.5195 101.818C39.4262 101.743 39.3445 101.664 39.2745 101.58H39.2185C39.2372 101.669 39.2512 101.762 39.2605 101.86C39.2699 101.953 39.2745 102.047 39.2745 102.14V103.68H38.2315V98.178H39.0785L39.2255 98.675H39.2745C39.3445 98.5723 39.4285 98.479 39.5265 98.395C39.6245 98.3063 39.7412 98.2363 39.8765 98.185C40.0165 98.1337 40.1775 98.108 40.3595 98.108ZM40.0235 98.941C39.8415 98.941 39.6969 98.9783 39.5895 99.053C39.4822 99.1277 39.4029 99.242 39.3515 99.396C39.3049 99.5453 39.2792 99.7343 39.2745 99.963V100.075C39.2745 100.322 39.2979 100.532 39.3445 100.705C39.3912 100.873 39.4705 101.001 39.5825 101.09C39.6945 101.179 39.8462 101.223 40.0375 101.223C40.1962 101.223 40.3269 101.179 40.4295 101.09C40.5322 101.001 40.6092 100.871 40.6605 100.698C40.7119 100.525 40.7375 100.315 40.7375 100.068C40.7375 99.6947 40.6792 99.4147 40.5625 99.228C40.4505 99.0367 40.2709 98.941 40.0235 98.941ZM46.1332 100.082C46.1332 100.399 46.0889 100.682 46.0002 100.929C45.9162 101.176 45.7926 101.386 45.6292 101.559C45.4706 101.727 45.2769 101.855 45.0482 101.944C44.8196 102.028 44.5606 102.07 44.2712 102.07C44.0052 102.07 43.7579 102.028 43.5292 101.944C43.3052 101.855 43.1116 101.727 42.9482 101.559C42.7849 101.386 42.6566 101.176 42.5632 100.929C42.4746 100.682 42.4302 100.399 42.4302 100.082C42.4302 99.6573 42.5049 99.3003 42.6542 99.011C42.8036 98.717 43.0182 98.493 43.2982 98.339C43.5782 98.185 43.9096 98.108 44.2922 98.108C44.6516 98.108 44.9689 98.185 45.2442 98.339C45.5196 98.493 45.7366 98.717 45.8952 99.011C46.0539 99.3003 46.1332 99.6573 46.1332 100.082ZM43.4942 100.082C43.4942 100.334 43.5199 100.546 43.5712 100.719C43.6272 100.887 43.7136 101.015 43.8302 101.104C43.9469 101.188 44.0986 101.23 44.2852 101.23C44.4719 101.23 44.6212 101.188 44.7332 101.104C44.8499 101.015 44.9339 100.887 44.9852 100.719C45.0412 100.546 45.0692 100.334 45.0692 100.082C45.0692 99.83 45.0412 99.62 44.9852 99.452C44.9339 99.284 44.8499 99.158 44.7332 99.074C44.6166 98.99 44.4649 98.948 44.2782 98.948C44.0029 98.948 43.8022 99.0437 43.6762 99.235C43.5549 99.4217 43.4942 99.704 43.4942 100.082ZM49.7882 98.157C50.2316 98.1943 50.6049 98.2993 50.9082 98.472C51.2116 98.64 51.4402 98.8617 51.5942 99.137C51.7529 99.4123 51.8322 99.7297 51.8322 100.089C51.8322 100.444 51.7552 100.761 51.6012 101.041C51.4519 101.321 51.2256 101.547 50.9222 101.72C50.6236 101.888 50.2456 101.991 49.7882 102.028V103.68H48.8222V102.028C48.3836 101.986 48.0102 101.881 47.7022 101.713C47.3989 101.54 47.1656 101.316 47.0022 101.041C46.8436 100.761 46.7642 100.444 46.7642 100.089C46.7642 99.725 46.8366 99.403 46.9812 99.123C47.1306 98.843 47.3569 98.619 47.6602 98.451C47.9682 98.283 48.3556 98.185 48.8222 98.157V96.68H49.7882V98.157ZM48.8222 98.941C48.6216 98.969 48.4466 99.0367 48.2972 99.144C48.1479 99.2467 48.0336 99.3797 47.9542 99.543C47.8749 99.7017 47.8352 99.8837 47.8352 100.089C47.8352 100.294 47.8726 100.479 47.9472 100.642C48.0266 100.805 48.1386 100.938 48.2832 101.041C48.4326 101.144 48.6122 101.209 48.8222 101.237V98.941ZM49.7882 101.237C49.9982 101.209 50.1756 101.144 50.3202 101.041C50.4649 100.938 50.5746 100.805 50.6492 100.642C50.7239 100.479 50.7612 100.294 50.7612 100.089C50.7612 99.8837 50.7216 99.7017 50.6422 99.543C50.5629 99.3797 50.4509 99.2467 50.3062 99.144C50.1616 99.0413 49.9889 98.9783 49.7882 98.955V101.237ZM53.7044 99.69C53.7044 99.7693 53.6997 99.8673 53.6904 99.984C53.6857 100.101 53.6787 100.22 53.6694 100.341C53.6647 100.462 53.6577 100.57 53.6484 100.663C53.6391 100.756 53.6321 100.822 53.6274 100.859L55.3914 98.178H56.6444V102H55.6364V100.474C55.6364 100.348 55.6411 100.21 55.6504 100.061C55.6597 99.907 55.6691 99.7647 55.6784 99.634C55.6924 99.4987 55.7017 99.396 55.7064 99.326L53.9494 102H52.6964V98.178H53.7044V99.69ZM61.1575 102H60.1145V98.962H59.1555C59.1088 99.522 59.0505 100 58.9805 100.397C58.9151 100.789 58.8311 101.109 58.7285 101.356C58.6305 101.603 58.5045 101.785 58.3505 101.902C58.1965 102.014 58.0075 102.07 57.7835 102.07C57.6621 102.07 57.5525 102.061 57.4545 102.042C57.3565 102.023 57.2678 101.995 57.1885 101.958V101.125C57.2398 101.144 57.2935 101.16 57.3495 101.174C57.4055 101.188 57.4638 101.195 57.5245 101.195C57.5898 101.195 57.6505 101.169 57.7065 101.118C57.7671 101.067 57.8231 100.976 57.8745 100.845C57.9305 100.714 57.9818 100.535 58.0285 100.306C58.0751 100.077 58.1171 99.7903 58.1545 99.445C58.1965 99.095 58.2338 98.6727 58.2665 98.178H61.1575V102ZM64.0242 99.655C64.4162 99.655 64.7405 99.697 64.9972 99.781C65.2539 99.8603 65.4429 99.984 65.5642 100.152C65.6902 100.32 65.7532 100.53 65.7532 100.782C65.7532 101.029 65.6949 101.244 65.5782 101.426C65.4662 101.608 65.2865 101.75 65.0392 101.853C64.7919 101.951 64.4675 102 64.0662 102H62.2462V98.178H63.2892V99.655H64.0242ZM64.7102 100.796C64.7102 100.647 64.6495 100.539 64.5282 100.474C64.4115 100.409 64.2365 100.376 64.0032 100.376H63.2892V101.279H64.0172C64.2225 101.279 64.3882 101.242 64.5142 101.167C64.6449 101.092 64.7102 100.969 64.7102 100.796Z" fill="#EFDB26"/>
<path id="&#208;&#154;&#208;&#190;&#209;&#128;&#208;&#183;&#208;&#184;&#208;&#189;&#208;&#176;" d="M41.1434 133H40.3874L38.1264 130.466V133H37.4964V128.002H38.1264V130.424L40.3314 128.002H41.0454L38.8754 130.431L41.1434 133ZM45.0015 131.117C45.0015 131.43 44.9595 131.707 44.8755 131.95C44.7962 132.188 44.6795 132.391 44.5255 132.559C44.3762 132.727 44.1919 132.855 43.9725 132.944C43.7579 133.028 43.5175 133.07 43.2515 133.07C43.0042 133.07 42.7755 133.028 42.5655 132.944C42.3555 132.855 42.1735 132.727 42.0195 132.559C41.8655 132.391 41.7442 132.188 41.6555 131.95C41.5715 131.707 41.5295 131.43 41.5295 131.117C41.5295 130.702 41.5995 130.352 41.7395 130.067C41.8795 129.778 42.0802 129.558 42.3415 129.409C42.6029 129.255 42.9132 129.178 43.2725 129.178C43.6132 129.178 43.9119 129.255 44.1685 129.409C44.4299 129.558 44.6329 129.778 44.7775 130.067C44.9269 130.352 45.0015 130.702 45.0015 131.117ZM42.1665 131.117C42.1665 131.411 42.2039 131.668 42.2785 131.887C42.3579 132.102 42.4792 132.267 42.6425 132.384C42.8059 132.501 43.0135 132.559 43.2655 132.559C43.5175 132.559 43.7252 132.501 43.8885 132.384C44.0519 132.267 44.1709 132.102 44.2455 131.887C44.3249 131.668 44.3645 131.411 44.3645 131.117C44.3645 130.818 44.3249 130.564 44.2455 130.354C44.1662 130.144 44.0449 129.983 43.8815 129.871C43.7229 129.754 43.5152 129.696 43.2585 129.696C42.8759 129.696 42.5982 129.822 42.4255 130.074C42.2529 130.326 42.1665 130.674 42.1665 131.117ZM47.7628 129.178C48.2248 129.178 48.5958 129.339 48.8758 129.661C49.1605 129.983 49.3028 130.468 49.3028 131.117C49.3028 131.542 49.2375 131.901 49.1068 132.195C48.9808 132.484 48.8011 132.704 48.5678 132.853C48.3391 132.998 48.0685 133.07 47.7558 133.07C47.5645 133.07 47.3941 133.044 47.2448 132.993C47.0955 132.942 46.9671 132.876 46.8598 132.797C46.7571 132.713 46.6685 132.622 46.5938 132.524H46.5518C46.5611 132.603 46.5705 132.704 46.5798 132.825C46.5891 132.946 46.5938 133.051 46.5938 133.14V134.68H45.9778V129.248H46.4818L46.5658 129.759H46.5938C46.6685 129.652 46.7571 129.554 46.8598 129.465C46.9671 129.376 47.0931 129.306 47.2378 129.255C47.3871 129.204 47.5621 129.178 47.7628 129.178ZM47.6508 129.696C47.3988 129.696 47.1958 129.745 47.0418 129.843C46.8878 129.936 46.7758 130.079 46.7058 130.27C46.6358 130.461 46.5985 130.704 46.5938 130.998V131.117C46.5938 131.425 46.6265 131.686 46.6918 131.901C46.7571 132.116 46.8668 132.279 47.0208 132.391C47.1795 132.503 47.3941 132.559 47.6648 132.559C47.8935 132.559 48.0801 132.496 48.2248 132.37C48.3741 132.244 48.4838 132.074 48.5538 131.859C48.6285 131.64 48.6658 131.39 48.6658 131.11C48.6658 130.681 48.5818 130.338 48.4138 130.081C48.2505 129.824 47.9961 129.696 47.6508 129.696ZM51.2715 129.178C51.5561 129.178 51.8035 129.218 52.0135 129.297C52.2235 129.372 52.3868 129.484 52.5035 129.633C52.6201 129.778 52.6785 129.955 52.6785 130.165C52.6785 130.394 52.6155 130.576 52.4895 130.711C52.3635 130.842 52.1908 130.937 51.9715 130.998V131.026C52.1208 131.068 52.2585 131.126 52.3845 131.201C52.5105 131.276 52.6108 131.374 52.6855 131.495C52.7648 131.616 52.8045 131.773 52.8045 131.964C52.8045 132.169 52.7461 132.356 52.6295 132.524C52.5175 132.692 52.3425 132.825 52.1045 132.923C51.8711 133.021 51.5701 133.07 51.2015 133.07C51.0241 133.07 50.8538 133.061 50.6905 133.042C50.5318 133.023 50.3871 132.995 50.2565 132.958C50.1305 132.921 50.0185 132.876 49.9205 132.825V132.272C50.0791 132.347 50.2658 132.414 50.4805 132.475C50.6998 132.536 50.9378 132.566 51.1945 132.566C51.3811 132.566 51.5491 132.545 51.6985 132.503C51.8525 132.461 51.9738 132.396 52.0625 132.307C52.1511 132.214 52.1955 132.088 52.1955 131.929C52.1955 131.784 52.1558 131.668 52.0765 131.579C51.9971 131.486 51.8781 131.416 51.7195 131.369C51.5655 131.322 51.3671 131.299 51.1245 131.299H50.6205V130.795H51.0265C51.3485 130.795 51.6051 130.753 51.7965 130.669C51.9925 130.58 52.0905 130.431 52.0905 130.221C52.0905 130.044 52.0158 129.911 51.8665 129.822C51.7218 129.733 51.5118 129.689 51.2365 129.689C51.0311 129.689 50.8491 129.71 50.6905 129.752C50.5365 129.789 50.3661 129.848 50.1795 129.927L49.9625 129.437C50.1631 129.348 50.3731 129.283 50.5925 129.241C50.8118 129.199 51.0381 129.178 51.2715 129.178ZM54.2971 131.537C54.2971 131.579 54.2948 131.64 54.2901 131.719C54.2901 131.794 54.2878 131.875 54.2831 131.964C54.2784 132.048 54.2738 132.13 54.2691 132.209C54.2644 132.284 54.2598 132.344 54.2551 132.391L56.2641 129.248H57.0201V133H56.4461V130.788C56.4461 130.713 56.4461 130.615 56.4461 130.494C56.4508 130.373 56.4554 130.254 56.4601 130.137C56.4648 130.016 56.4694 129.925 56.4741 129.864L54.4791 133H53.7161V129.248H54.2971V131.537ZM58.8301 129.248V130.809H60.8671V129.248H61.4831V133H60.8671V131.327H58.8301V133H58.2141V129.248H58.8301ZM64.0922 129.185C64.5495 129.185 64.8878 129.285 65.1072 129.486C65.3265 129.687 65.4362 130.006 65.4362 130.445V133H64.9882L64.8692 132.468H64.8412C64.7338 132.603 64.6218 132.718 64.5052 132.811C64.3932 132.9 64.2625 132.965 64.1132 133.007C63.9685 133.049 63.7912 133.07 63.5812 133.07C63.3572 133.07 63.1542 133.03 62.9722 132.951C62.7948 132.872 62.6548 132.75 62.5522 132.587C62.4495 132.419 62.3982 132.209 62.3982 131.957C62.3982 131.584 62.5452 131.297 62.8392 131.096C63.1332 130.891 63.5858 130.779 64.1972 130.76L64.8342 130.739V130.515C64.8342 130.202 64.7665 129.985 64.6312 129.864C64.4958 129.743 64.3045 129.682 64.0572 129.682C63.8612 129.682 63.6745 129.712 63.4972 129.773C63.3198 129.829 63.1542 129.894 63.0002 129.969L62.8112 129.507C62.9745 129.418 63.1682 129.344 63.3922 129.283C63.6162 129.218 63.8495 129.185 64.0922 129.185ZM64.2742 131.187C63.8075 131.206 63.4832 131.28 63.3012 131.411C63.1238 131.542 63.0352 131.726 63.0352 131.964C63.0352 132.174 63.0982 132.328 63.2242 132.426C63.3548 132.524 63.5205 132.573 63.7212 132.573C64.0385 132.573 64.3022 132.487 64.5122 132.314C64.7222 132.137 64.8272 131.866 64.8272 131.502V131.166L64.2742 131.187Z" fill="white"/>
</g>
</g>
<defs>
<clipPath id="clip0_17_7015">
<rect width="89" height="187" fill="white"/>
</clipPath>
</defs>
</svg>
