<svg width="89" height="187" viewBox="0 0 89 187" fill="none" xmlns="http://www.w3.org/2000/svg">
<g id="menu v2.0">
<g id="Frame 25">
<path id="&#208;&#160;&#208;&#176;&#208;&#183;&#208;&#180;&#208;&#181;&#208;&#187;&#209;&#139;" d="M15.3941 30.432C16.4981 30.432 17.3021 30.672 17.8061 31.152C18.3181 31.624 18.5741 32.276 18.5741 33.108C18.5741 33.484 18.5181 33.844 18.4061 34.188C18.2941 34.524 18.1061 34.828 17.8421 35.1C17.5861 35.364 17.2461 35.572 16.8221 35.724C16.3981 35.876 15.8741 35.952 15.2501 35.952H14.4701V39H12.6581V30.432H15.3941ZM15.2981 31.92H14.4701V34.464H15.0701C15.4141 34.464 15.7101 34.42 15.9581 34.332C16.2061 34.244 16.3981 34.104 16.5341 33.912C16.6701 33.72 16.7381 33.472 16.7381 33.168C16.7381 32.744 16.6221 32.432 16.3901 32.232C16.1581 32.024 15.7941 31.92 15.2981 31.92ZM22.7373 32.316C23.6173 32.316 24.2893 32.508 24.7533 32.892C25.2253 33.268 25.4613 33.848 25.4613 34.632V39H24.2133L23.8653 38.112H23.8173C23.6333 38.344 23.4413 38.536 23.2413 38.688C23.0493 38.84 22.8253 38.948 22.5693 39.012C22.3213 39.084 22.0133 39.12 21.6453 39.12C21.2613 39.12 20.9133 39.048 20.6013 38.904C20.2973 38.752 20.0573 38.524 19.8813 38.22C19.7053 37.908 19.6173 37.516 19.6173 37.044C19.6173 36.348 19.8613 35.836 20.3493 35.508C20.8373 35.172 21.5693 34.988 22.5453 34.956L23.6853 34.92V34.632C23.6853 34.288 23.5933 34.036 23.4093 33.876C23.2333 33.716 22.9853 33.636 22.6653 33.636C22.3453 33.636 22.0333 33.684 21.7293 33.78C21.4253 33.868 21.1213 33.98 20.8173 34.116L20.2293 32.904C20.5813 32.72 20.9693 32.576 21.3933 32.472C21.8253 32.368 22.2733 32.316 22.7373 32.316ZM22.9893 35.988C22.4133 36.004 22.0133 36.108 21.7893 36.3C21.5653 36.492 21.4533 36.744 21.4533 37.056C21.4533 37.328 21.5333 37.524 21.6933 37.644C21.8533 37.756 22.0613 37.812 22.3173 37.812C22.7013 37.812 23.0253 37.7 23.2893 37.476C23.5533 37.244 23.6853 36.92 23.6853 36.504V35.964L22.9893 35.988ZM29.6795 32.328C30.1515 32.328 30.5915 32.392 30.9995 32.52C31.4155 32.64 31.7475 32.828 31.9955 33.084C32.2515 33.34 32.3795 33.668 32.3795 34.068C32.3795 34.46 32.2595 34.772 32.0195 35.004C31.7875 35.236 31.4715 35.404 31.0715 35.508V35.568C31.3515 35.632 31.6035 35.724 31.8275 35.844C32.0515 35.956 32.2275 36.112 32.3555 36.312C32.4915 36.504 32.5595 36.764 32.5595 37.092C32.5595 37.452 32.4435 37.788 32.2115 38.1C31.9875 38.404 31.6355 38.652 31.1555 38.844C30.6835 39.028 30.0755 39.12 29.3315 39.12C28.9795 39.12 28.6475 39.104 28.3355 39.072C28.0235 39.04 27.7395 38.996 27.4835 38.94C27.2275 38.876 27.0035 38.8 26.8115 38.712V37.236C27.0835 37.364 27.4155 37.48 27.8075 37.584C28.2075 37.688 28.6315 37.74 29.0795 37.74C29.4075 37.74 29.6995 37.716 29.9555 37.668C30.2195 37.62 30.4275 37.54 30.5795 37.428C30.7395 37.316 30.8195 37.168 30.8195 36.984C30.8195 36.808 30.7515 36.664 30.6155 36.552C30.4795 36.432 30.2755 36.344 30.0035 36.288C29.7315 36.232 29.3835 36.204 28.9595 36.204H28.2635V34.968H28.9235C29.5155 34.968 29.9715 34.92 30.2915 34.824C30.6195 34.728 30.7835 34.548 30.7835 34.284C30.7835 34.076 30.6795 33.92 30.4715 33.816C30.2635 33.704 29.9235 33.648 29.4515 33.648C29.1395 33.648 28.7995 33.684 28.4315 33.756C28.0635 33.828 27.7155 33.932 27.3875 34.068L26.8595 32.82C27.2355 32.676 27.6475 32.56 28.0955 32.472C28.5435 32.376 29.0715 32.328 29.6795 32.328ZM39.8397 32.448V37.692H40.7997V41.352H39.1917V39H34.7877V41.352H33.1797V37.692H33.7317C34.0197 37.252 34.2637 36.752 34.4637 36.192C34.6637 35.624 34.8237 35.02 34.9437 34.38C35.0637 33.74 35.1517 33.096 35.2077 32.448H39.8397ZM36.7077 33.792C36.6437 34.272 36.5637 34.74 36.4677 35.196C36.3717 35.644 36.2517 36.076 36.1077 36.492C35.9717 36.908 35.8037 37.308 35.6037 37.692H38.0517V33.792H36.7077ZM44.6165 32.328C45.2245 32.328 45.7445 32.444 46.1765 32.676C46.6165 32.908 46.9565 33.244 47.1965 33.684C47.4365 34.124 47.5565 34.664 47.5565 35.304V36.168H43.3325C43.3485 36.672 43.4965 37.068 43.7765 37.356C44.0645 37.644 44.4605 37.788 44.9645 37.788C45.3885 37.788 45.7725 37.748 46.1165 37.668C46.4605 37.58 46.8165 37.448 47.1845 37.272V38.652C46.8645 38.812 46.5245 38.928 46.1645 39C45.8125 39.08 45.3845 39.12 44.8805 39.12C44.2245 39.12 43.6445 39 43.1405 38.76C42.6365 38.512 42.2405 38.14 41.9525 37.644C41.6645 37.148 41.5205 36.524 41.5205 35.772C41.5205 35.004 41.6485 34.368 41.9045 33.864C42.1685 33.352 42.5325 32.968 42.9965 32.712C43.4605 32.456 44.0005 32.328 44.6165 32.328ZM44.6285 33.6C44.2845 33.6 43.9965 33.712 43.7645 33.936C43.5405 34.16 43.4085 34.508 43.3685 34.98H45.8765C45.8765 34.716 45.8285 34.48 45.7325 34.272C45.6445 34.064 45.5085 33.9 45.3245 33.78C45.1405 33.66 44.9085 33.6 44.6285 33.6ZM54.8743 39H53.0863V33.792H51.4423C51.3623 34.752 51.2623 35.572 51.1423 36.252C51.0303 36.924 50.8863 37.472 50.7103 37.896C50.5423 38.32 50.3263 38.632 50.0623 38.832C49.7983 39.024 49.4743 39.12 49.0903 39.12C48.8823 39.12 48.6943 39.104 48.5263 39.072C48.3583 39.04 48.2063 38.992 48.0703 38.928V37.5C48.1583 37.532 48.2503 37.56 48.3463 37.584C48.4423 37.608 48.5423 37.62 48.6463 37.62C48.7583 37.62 48.8623 37.576 48.9583 37.488C49.0623 37.4 49.1583 37.244 49.2463 37.02C49.3423 36.796 49.4303 36.488 49.5103 36.096C49.5903 35.704 49.6623 35.212 49.7263 34.62C49.7983 34.02 49.8623 33.296 49.9183 32.448H54.8743V39ZM56.7407 39V32.448H58.5287V34.98H59.3927C60.0647 34.98 60.6167 35.052 61.0487 35.196C61.4807 35.332 61.8007 35.544 62.0087 35.832C62.2247 36.12 62.3327 36.48 62.3327 36.912C62.3327 37.336 62.2327 37.704 62.0327 38.016C61.8407 38.328 61.5327 38.572 61.1087 38.748C60.6927 38.916 60.1407 39 59.4527 39H56.7407ZM59.3567 37.764C59.7087 37.764 59.9927 37.7 60.2087 37.572C60.4327 37.444 60.5447 37.232 60.5447 36.936C60.5447 36.68 60.4407 36.496 60.2327 36.384C60.0327 36.272 59.7327 36.216 59.3327 36.216H58.5287V37.764H59.3567ZM63.2807 39V32.448H65.0687V39H63.2807Z" fill="white"/>
<path id="&#208;&#154;&#208;&#176;&#209;&#130;&#208;&#176;&#208;&#187;&#208;&#190;&#208;&#179;" d="M41.494 71H40.29L38.477 68.466V71H37.42V66.002H38.477V68.424L40.269 66.002H41.396L39.576 68.403L41.494 71ZM43.6072 67.101C44.1205 67.101 44.5125 67.213 44.7832 67.437C45.0585 67.6563 45.1962 67.9947 45.1962 68.452V71H44.4682L44.2652 70.482H44.2372C44.1298 70.6173 44.0178 70.7293 43.9012 70.818C43.7892 70.9067 43.6585 70.9697 43.5092 71.007C43.3645 71.049 43.1848 71.07 42.9702 71.07C42.7462 71.07 42.5432 71.028 42.3612 70.944C42.1838 70.8553 42.0438 70.7223 41.9412 70.545C41.8385 70.363 41.7872 70.1343 41.7872 69.859C41.7872 69.453 41.9295 69.1543 42.2142 68.963C42.4988 68.767 42.9258 68.6597 43.4952 68.641L44.1602 68.62V68.452C44.1602 68.2513 44.1065 68.1043 43.9992 68.011C43.8965 67.9177 43.7518 67.871 43.5652 67.871C43.3785 67.871 43.1965 67.899 43.0192 67.955C42.8418 68.0063 42.6645 68.0717 42.4872 68.151L42.1442 67.444C42.3495 67.3367 42.5758 67.2527 42.8232 67.192C43.0752 67.1313 43.3365 67.101 43.6072 67.101ZM43.7542 69.243C43.4182 69.2523 43.1848 69.313 43.0542 69.425C42.9235 69.537 42.8582 69.684 42.8582 69.866C42.8582 70.0247 42.9048 70.139 42.9982 70.209C43.0915 70.2743 43.2128 70.307 43.3622 70.307C43.5862 70.307 43.7752 70.2417 43.9292 70.111C44.0832 69.9757 44.1602 69.7867 44.1602 69.544V69.229L43.7542 69.243ZM49.4278 67.962H48.1748V71H47.1318V67.962H45.8788V67.178H49.4278V67.962ZM51.7009 67.101C52.2142 67.101 52.6062 67.213 52.8769 67.437C53.1522 67.6563 53.2899 67.9947 53.2899 68.452V71H52.5619L52.3589 70.482H52.3309C52.2236 70.6173 52.1116 70.7293 51.9949 70.818C51.8829 70.9067 51.7522 70.9697 51.6029 71.007C51.4582 71.049 51.2786 71.07 51.0639 71.07C50.8399 71.07 50.6369 71.028 50.4549 70.944C50.2776 70.8553 50.1376 70.7223 50.0349 70.545C49.9322 70.363 49.8809 70.1343 49.8809 69.859C49.8809 69.453 50.0232 69.1543 50.3079 68.963C50.5926 68.767 51.0196 68.6597 51.5889 68.641L52.2539 68.62V68.452C52.2539 68.2513 52.2002 68.1043 52.0929 68.011C51.9902 67.9177 51.8456 67.871 51.6589 67.871C51.4722 67.871 51.2902 67.899 51.1129 67.955C50.9356 68.0063 50.7582 68.0717 50.5809 68.151L50.2379 67.444C50.4432 67.3367 50.6696 67.2527 50.9169 67.192C51.1689 67.1313 51.4302 67.101 51.7009 67.101ZM51.8479 69.243C51.5119 69.2523 51.2786 69.313 51.1479 69.425C51.0172 69.537 50.9519 69.684 50.9519 69.866C50.9519 70.0247 50.9986 70.139 51.0919 70.209C51.1852 70.2743 51.3066 70.307 51.4559 70.307C51.6799 70.307 51.8689 70.2417 52.0229 70.111C52.1769 69.9757 52.2539 69.7867 52.2539 69.544V69.229L51.8479 69.243ZM57.7805 71H56.7375V67.962H55.7785C55.7319 68.522 55.6735 69.0003 55.6035 69.397C55.5382 69.789 55.4542 70.1087 55.3515 70.356C55.2535 70.6033 55.1275 70.7853 54.9735 70.902C54.8195 71.014 54.6305 71.07 54.4065 71.07C54.2852 71.07 54.1755 71.0607 54.0775 71.042C53.9795 71.0233 53.8909 70.9953 53.8115 70.958V70.125C53.8629 70.1437 53.9165 70.16 53.9725 70.174C54.0285 70.188 54.0869 70.195 54.1475 70.195C54.2129 70.195 54.2735 70.1693 54.3295 70.118C54.3902 70.0667 54.4462 69.9757 54.4975 69.845C54.5535 69.7143 54.6049 69.5347 54.6515 69.306C54.6982 69.0773 54.7402 68.7903 54.7775 68.445C54.8195 68.095 54.8569 67.6727 54.8895 67.178H57.7805V71ZM62.3412 69.082C62.3412 69.3993 62.2969 69.6817 62.2082 69.929C62.1242 70.1763 62.0006 70.3863 61.8372 70.559C61.6786 70.727 61.4849 70.8553 61.2562 70.944C61.0276 71.028 60.7686 71.07 60.4792 71.07C60.2132 71.07 59.9659 71.028 59.7372 70.944C59.5132 70.8553 59.3196 70.727 59.1562 70.559C58.9929 70.3863 58.8646 70.1763 58.7712 69.929C58.6826 69.6817 58.6382 69.3993 58.6382 69.082C58.6382 68.6573 58.7129 68.3003 58.8622 68.011C59.0116 67.717 59.2262 67.493 59.5062 67.339C59.7862 67.185 60.1176 67.108 60.5002 67.108C60.8596 67.108 61.1769 67.185 61.4522 67.339C61.7276 67.493 61.9446 67.717 62.1032 68.011C62.2619 68.3003 62.3412 68.6573 62.3412 69.082ZM59.7022 69.082C59.7022 69.334 59.7279 69.5463 59.7792 69.719C59.8352 69.887 59.9216 70.0153 60.0382 70.104C60.1549 70.188 60.3066 70.23 60.4932 70.23C60.6799 70.23 60.8292 70.188 60.9412 70.104C61.0579 70.0153 61.1419 69.887 61.1932 69.719C61.2492 69.5463 61.2772 69.334 61.2772 69.082C61.2772 68.83 61.2492 68.62 61.1932 68.452C61.1419 68.284 61.0579 68.158 60.9412 68.074C60.8246 67.99 60.6729 67.948 60.4862 67.948C60.2109 67.948 60.0102 68.0437 59.8842 68.235C59.7629 68.4217 59.7022 68.704 59.7022 69.082ZM65.8422 67.178V67.962H64.2462V71H63.2032V67.178H65.8422Z" fill="#EFDB26"/>
<path id="&#208;&#159;&#209;&#128;&#208;&#190;&#209;&#132;&#208;&#184;&#208;&#187;&#209;&#140;" d="M35.2405 102V97.002H38.9925V102H38.3695V97.555H35.8705V102H35.2405ZM42.0616 98.178C42.5236 98.178 42.8946 98.339 43.1746 98.661C43.4593 98.983 43.6016 99.4683 43.6016 100.117C43.6016 100.542 43.5363 100.901 43.4056 101.195C43.2796 101.484 43.1 101.704 42.8666 101.853C42.638 101.998 42.3673 102.07 42.0546 102.07C41.8633 102.07 41.693 102.044 41.5436 101.993C41.3943 101.942 41.266 101.876 41.1586 101.797C41.056 101.713 40.9673 101.622 40.8926 101.524H40.8506C40.86 101.603 40.8693 101.704 40.8786 101.825C40.888 101.946 40.8926 102.051 40.8926 102.14V103.68H40.2766V98.248H40.7806L40.8646 98.759H40.8926C40.9673 98.6517 41.056 98.5537 41.1586 98.465C41.266 98.3763 41.392 98.3063 41.5366 98.255C41.686 98.2037 41.861 98.178 42.0616 98.178ZM41.9496 98.696C41.6976 98.696 41.4946 98.745 41.3406 98.843C41.1866 98.9363 41.0746 99.0787 41.0046 99.27C40.9346 99.4613 40.8973 99.704 40.8926 99.998V100.117C40.8926 100.425 40.9253 100.686 40.9906 100.901C41.056 101.116 41.1656 101.279 41.3196 101.391C41.4783 101.503 41.693 101.559 41.9636 101.559C42.1923 101.559 42.379 101.496 42.5236 101.37C42.673 101.244 42.7826 101.074 42.8526 100.859C42.9273 100.64 42.9646 100.39 42.9646 100.11C42.9646 99.6807 42.8806 99.3377 42.7126 99.081C42.5493 98.8243 42.295 98.696 41.9496 98.696ZM47.8453 100.117C47.8453 100.43 47.8033 100.707 47.7193 100.95C47.6399 101.188 47.5233 101.391 47.3693 101.559C47.2199 101.727 47.0356 101.855 46.8163 101.944C46.6016 102.028 46.3613 102.07 46.0953 102.07C45.8479 102.07 45.6193 102.028 45.4093 101.944C45.1993 101.855 45.0173 101.727 44.8633 101.559C44.7093 101.391 44.5879 101.188 44.4993 100.95C44.4153 100.707 44.3733 100.43 44.3733 100.117C44.3733 99.7017 44.4433 99.3517 44.5833 99.067C44.7233 98.7777 44.9239 98.5583 45.1853 98.409C45.4466 98.255 45.7569 98.178 46.1163 98.178C46.4569 98.178 46.7556 98.255 47.0123 98.409C47.2736 98.5583 47.4766 98.7777 47.6213 99.067C47.7706 99.3517 47.8453 99.7017 47.8453 100.117ZM45.0103 100.117C45.0103 100.411 45.0476 100.668 45.1223 100.887C45.2016 101.102 45.3229 101.267 45.4863 101.384C45.6496 101.501 45.8573 101.559 46.1093 101.559C46.3613 101.559 46.5689 101.501 46.7323 101.384C46.8956 101.267 47.0146 101.102 47.0893 100.887C47.1686 100.668 47.2083 100.411 47.2083 100.117C47.2083 99.8183 47.1686 99.564 47.0893 99.354C47.0099 99.144 46.8886 98.983 46.7253 98.871C46.5666 98.7543 46.3589 98.696 46.1023 98.696C45.7196 98.696 45.4419 98.822 45.2693 99.074C45.0966 99.326 45.0103 99.6737 45.0103 100.117ZM51.0616 98.192C51.4349 98.2247 51.7592 98.3227 52.0346 98.486C52.3146 98.6493 52.5316 98.8687 52.6856 99.144C52.8396 99.4193 52.9166 99.746 52.9166 100.124C52.9166 100.502 52.8419 100.831 52.6926 101.111C52.5432 101.386 52.3309 101.606 52.0556 101.769C51.7802 101.928 51.4489 102.023 51.0616 102.056V103.68H50.4596V102.056C50.0909 102.023 49.7666 101.928 49.4866 101.769C49.2066 101.606 48.9896 101.386 48.8356 101.111C48.6816 100.831 48.6046 100.502 48.6046 100.124C48.6046 99.7413 48.6792 99.4123 48.8286 99.137C48.9779 98.857 49.1926 98.6377 49.4726 98.479C49.7526 98.3157 50.0886 98.22 50.4806 98.192V96.68H51.0616V98.192ZM50.4806 98.703C50.1959 98.731 49.9626 98.8033 49.7806 98.92C49.5986 99.0367 49.4632 99.1953 49.3746 99.396C49.2906 99.5967 49.2486 99.8393 49.2486 100.124C49.2486 100.404 49.2906 100.647 49.3746 100.852C49.4632 101.053 49.5986 101.214 49.7806 101.335C49.9626 101.452 50.1959 101.524 50.4806 101.552V98.703ZM51.0616 101.552C51.3416 101.519 51.5702 101.445 51.7476 101.328C51.9296 101.211 52.0626 101.053 52.1466 100.852C52.2352 100.647 52.2796 100.404 52.2796 100.124C52.2796 99.844 52.2352 99.6037 52.1466 99.403C52.0579 99.2023 51.9226 99.0437 51.7406 98.927C51.5632 98.8103 51.3369 98.738 51.0616 98.71V101.552ZM54.4748 100.537C54.4748 100.579 54.4725 100.64 54.4678 100.719C54.4678 100.794 54.4655 100.875 54.4608 100.964C54.4562 101.048 54.4515 101.13 54.4468 101.209C54.4422 101.284 54.4375 101.344 54.4328 101.391L56.4418 98.248H57.1978V102H56.6238V99.788C56.6238 99.7133 56.6238 99.6153 56.6238 99.494C56.6285 99.3727 56.6332 99.2537 56.6378 99.137C56.6425 99.0157 56.6472 98.9247 56.6518 98.864L54.6568 102H53.8938V98.248H54.4748V100.537ZM61.2479 102H60.6249V98.759H59.5189C59.4722 99.3517 59.4139 99.858 59.3439 100.278C59.2739 100.693 59.1852 101.032 59.0779 101.293C58.9705 101.554 58.8422 101.746 58.6929 101.867C58.5435 101.988 58.3685 102.049 58.1679 102.049C58.1072 102.049 58.0465 102.044 57.9859 102.035C57.9299 102.03 57.8832 102.019 57.8459 102V101.538C57.8739 101.547 57.9042 101.554 57.9369 101.559C57.9695 101.564 58.0022 101.566 58.0349 101.566C58.1375 101.566 58.2309 101.524 58.3149 101.44C58.3989 101.356 58.4735 101.228 58.5389 101.055C58.6089 100.882 58.6719 100.665 58.7279 100.404C58.7839 100.138 58.8329 99.8253 58.8749 99.466C58.9169 99.1067 58.9542 98.7007 58.9869 98.248H61.2479V102ZM64.1678 99.788C64.4944 99.788 64.7651 99.8277 64.9798 99.907C65.1944 99.9863 65.3554 100.105 65.4628 100.264C65.5748 100.418 65.6308 100.614 65.6308 100.852C65.6308 101.085 65.5771 101.288 65.4698 101.461C65.3671 101.634 65.2061 101.767 64.9868 101.86C64.7674 101.953 64.4851 102 64.1398 102H62.4388V98.248H63.0548V99.788H64.1678ZM65.0148 100.887C65.0148 100.658 64.9331 100.504 64.7698 100.425C64.6111 100.341 64.3871 100.299 64.0978 100.299H63.0548V101.503H64.1118C64.3731 101.503 64.5878 101.456 64.7558 101.363C64.9284 101.27 65.0148 101.111 65.0148 100.887Z" fill="white"/>
<path id="&#208;&#154;&#208;&#190;&#209;&#128;&#208;&#183;&#208;&#184;&#208;&#189;&#208;&#176;" d="M41.1434 133H40.3874L38.1264 130.466V133H37.4964V128.002H38.1264V130.424L40.3314 128.002H41.0454L38.8754 130.431L41.1434 133ZM45.0015 131.117C45.0015 131.43 44.9595 131.707 44.8755 131.95C44.7962 132.188 44.6795 132.391 44.5255 132.559C44.3762 132.727 44.1919 132.855 43.9725 132.944C43.7579 133.028 43.5175 133.07 43.2515 133.07C43.0042 133.07 42.7755 133.028 42.5655 132.944C42.3555 132.855 42.1735 132.727 42.0195 132.559C41.8655 132.391 41.7442 132.188 41.6555 131.95C41.5715 131.707 41.5295 131.43 41.5295 131.117C41.5295 130.702 41.5995 130.352 41.7395 130.067C41.8795 129.778 42.0802 129.558 42.3415 129.409C42.6029 129.255 42.9132 129.178 43.2725 129.178C43.6132 129.178 43.9119 129.255 44.1685 129.409C44.4299 129.558 44.6329 129.778 44.7775 130.067C44.9269 130.352 45.0015 130.702 45.0015 131.117ZM42.1665 131.117C42.1665 131.411 42.2039 131.668 42.2785 131.887C42.3579 132.102 42.4792 132.267 42.6425 132.384C42.8059 132.501 43.0135 132.559 43.2655 132.559C43.5175 132.559 43.7252 132.501 43.8885 132.384C44.0519 132.267 44.1709 132.102 44.2455 131.887C44.3249 131.668 44.3645 131.411 44.3645 131.117C44.3645 130.818 44.3249 130.564 44.2455 130.354C44.1662 130.144 44.0449 129.983 43.8815 129.871C43.7229 129.754 43.5152 129.696 43.2585 129.696C42.8759 129.696 42.5982 129.822 42.4255 130.074C42.2529 130.326 42.1665 130.674 42.1665 131.117ZM47.7628 129.178C48.2248 129.178 48.5958 129.339 48.8758 129.661C49.1605 129.983 49.3028 130.468 49.3028 131.117C49.3028 131.542 49.2375 131.901 49.1068 132.195C48.9808 132.484 48.8011 132.704 48.5678 132.853C48.3391 132.998 48.0685 133.07 47.7558 133.07C47.5645 133.07 47.3941 133.044 47.2448 132.993C47.0955 132.942 46.9671 132.876 46.8598 132.797C46.7571 132.713 46.6685 132.622 46.5938 132.524H46.5518C46.5611 132.603 46.5705 132.704 46.5798 132.825C46.5891 132.946 46.5938 133.051 46.5938 133.14V134.68H45.9778V129.248H46.4818L46.5658 129.759H46.5938C46.6685 129.652 46.7571 129.554 46.8598 129.465C46.9671 129.376 47.0931 129.306 47.2378 129.255C47.3871 129.204 47.5621 129.178 47.7628 129.178ZM47.6508 129.696C47.3988 129.696 47.1958 129.745 47.0418 129.843C46.8878 129.936 46.7758 130.079 46.7058 130.27C46.6358 130.461 46.5985 130.704 46.5938 130.998V131.117C46.5938 131.425 46.6265 131.686 46.6918 131.901C46.7571 132.116 46.8668 132.279 47.0208 132.391C47.1795 132.503 47.3941 132.559 47.6648 132.559C47.8935 132.559 48.0801 132.496 48.2248 132.37C48.3741 132.244 48.4838 132.074 48.5538 131.859C48.6285 131.64 48.6658 131.39 48.6658 131.11C48.6658 130.681 48.5818 130.338 48.4138 130.081C48.2505 129.824 47.9961 129.696 47.6508 129.696ZM51.2715 129.178C51.5561 129.178 51.8035 129.218 52.0135 129.297C52.2235 129.372 52.3868 129.484 52.5035 129.633C52.6201 129.778 52.6785 129.955 52.6785 130.165C52.6785 130.394 52.6155 130.576 52.4895 130.711C52.3635 130.842 52.1908 130.937 51.9715 130.998V131.026C52.1208 131.068 52.2585 131.126 52.3845 131.201C52.5105 131.276 52.6108 131.374 52.6855 131.495C52.7648 131.616 52.8045 131.773 52.8045 131.964C52.8045 132.169 52.7461 132.356 52.6295 132.524C52.5175 132.692 52.3425 132.825 52.1045 132.923C51.8711 133.021 51.5701 133.07 51.2015 133.07C51.0241 133.07 50.8538 133.061 50.6905 133.042C50.5318 133.023 50.3871 132.995 50.2565 132.958C50.1305 132.921 50.0185 132.876 49.9205 132.825V132.272C50.0791 132.347 50.2658 132.414 50.4805 132.475C50.6998 132.536 50.9378 132.566 51.1945 132.566C51.3811 132.566 51.5491 132.545 51.6985 132.503C51.8525 132.461 51.9738 132.396 52.0625 132.307C52.1511 132.214 52.1955 132.088 52.1955 131.929C52.1955 131.784 52.1558 131.668 52.0765 131.579C51.9971 131.486 51.8781 131.416 51.7195 131.369C51.5655 131.322 51.3671 131.299 51.1245 131.299H50.6205V130.795H51.0265C51.3485 130.795 51.6051 130.753 51.7965 130.669C51.9925 130.58 52.0905 130.431 52.0905 130.221C52.0905 130.044 52.0158 129.911 51.8665 129.822C51.7218 129.733 51.5118 129.689 51.2365 129.689C51.0311 129.689 50.8491 129.71 50.6905 129.752C50.5365 129.789 50.3661 129.848 50.1795 129.927L49.9625 129.437C50.1631 129.348 50.3731 129.283 50.5925 129.241C50.8118 129.199 51.0381 129.178 51.2715 129.178ZM54.2971 131.537C54.2971 131.579 54.2948 131.64 54.2901 131.719C54.2901 131.794 54.2878 131.875 54.2831 131.964C54.2784 132.048 54.2738 132.13 54.2691 132.209C54.2644 132.284 54.2598 132.344 54.2551 132.391L56.2641 129.248H57.0201V133H56.4461V130.788C56.4461 130.713 56.4461 130.615 56.4461 130.494C56.4508 130.373 56.4554 130.254 56.4601 130.137C56.4648 130.016 56.4694 129.925 56.4741 129.864L54.4791 133H53.7161V129.248H54.2971V131.537ZM58.8301 129.248V130.809H60.8671V129.248H61.4831V133H60.8671V131.327H58.8301V133H58.2141V129.248H58.8301ZM64.0922 129.185C64.5495 129.185 64.8878 129.285 65.1072 129.486C65.3265 129.687 65.4362 130.006 65.4362 130.445V133H64.9882L64.8692 132.468H64.8412C64.7338 132.603 64.6218 132.718 64.5052 132.811C64.3932 132.9 64.2625 132.965 64.1132 133.007C63.9685 133.049 63.7912 133.07 63.5812 133.07C63.3572 133.07 63.1542 133.03 62.9722 132.951C62.7948 132.872 62.6548 132.75 62.5522 132.587C62.4495 132.419 62.3982 132.209 62.3982 131.957C62.3982 131.584 62.5452 131.297 62.8392 131.096C63.1332 130.891 63.5858 130.779 64.1972 130.76L64.8342 130.739V130.515C64.8342 130.202 64.7665 129.985 64.6312 129.864C64.4958 129.743 64.3045 129.682 64.0572 129.682C63.8612 129.682 63.6745 129.712 63.4972 129.773C63.3198 129.829 63.1542 129.894 63.0002 129.969L62.8112 129.507C62.9745 129.418 63.1682 129.344 63.3922 129.283C63.6162 129.218 63.8495 129.185 64.0922 129.185ZM64.2742 131.187C63.8075 131.206 63.4832 131.28 63.3012 131.411C63.1238 131.542 63.0352 131.726 63.0352 131.964C63.0352 132.174 63.0982 132.328 63.2242 132.426C63.3548 132.524 63.5205 132.573 63.7212 132.573C64.0385 132.573 64.3022 132.487 64.5122 132.314C64.7222 132.137 64.8272 131.866 64.8272 131.502V131.166L64.2742 131.187Z" fill="white"/>
</g>
</g>
</svg>
