<svg width="300" height="270" viewBox="0 0 300 270" fill="none" xmlns="http://www.w3.org/2000/svg">
<g clip-path="url(#clip0_14_6686)">
<path d="M90 210H210V201.75C210 190.5 204.5 181.565 193.5 174.945C182.5 168.325 168 165.01 150 165C132 165 117.5 168.315 106.5 174.945C95.5 181.575 90 190.51 90 201.75V210ZM150 150C158.25 150 165.315 147.065 171.195 141.195C177.075 135.325 180.01 128.26 180 120C180 111.75 177.065 104.69 171.195 98.82C165.325 92.95 158.26 90.01 150 90C141.75 90 134.69 92.94 128.82 98.82C122.95 104.7 120.01 111.76 120 120C120 128.25 122.94 135.315 128.82 141.195C134.7 147.075 141.76 150.01 150 150ZM30 270C21.75 270 14.69 267.065 8.82 261.195C2.95 255.325 0.01 248.26 0 240V60C0 51.75 2.94 44.69 8.82 38.82C14.7 32.95 21.76 30.01 30 30H77.25L105 0H195L222.75 30H270C278.25 30 285.315 32.94 291.195 38.82C297.075 44.7 300.01 51.76 300 60V240C300 248.25 297.065 255.315 291.195 261.195C285.325 267.075 278.26 270.01 270 270H30ZM30 240H270V60H209.25L181.875 30H118.125L90.75 60H30V240Z" fill="#580DA3"/>
</g>
<defs>
<clipPath id="clip0_14_6686">
<rect width="300" height="270" fill="white"/>
</clipPath>
</defs>
</svg>
