<svg width="40" height="40" viewBox="0 0 40 40" fill="none" xmlns="http://www.w3.org/2000/svg">
<rect width="40" height="40" rx="20" fill="#580DA3"/>
<path d="M8 29.875C8 28.2174 8.65848 26.6277 9.83058 25.4556C11.0027 24.2835 12.5924 23.625 14.25 23.625H26.75C28.4076 23.625 29.9973 24.2835 31.1694 25.4556C32.3415 26.6277 33 28.2174 33 29.875C33 30.7038 32.6708 31.4987 32.0847 32.0847C31.4987 32.6708 30.7038 33 29.875 33H11.125C10.2962 33 9.50134 32.6708 8.91529 32.0847C8.32924 31.4987 8 30.7038 8 29.875Z" stroke="white" stroke-width="2" stroke-linejoin="round"/>
<path d="M20.5 17.375C23.0888 17.375 25.1875 15.2763 25.1875 12.6875C25.1875 10.0987 23.0888 8 20.5 8C17.9112 8 15.8125 10.0987 15.8125 12.6875C15.8125 15.2763 17.9112 17.375 20.5 17.375Z" stroke="white" stroke-width="2"/>
</svg>
