<svg width="40" height="40" viewBox="0 0 40 40" fill="none" xmlns="http://www.w3.org/2000/svg">
<rect width="40" height="40" rx="20" fill="white"/>
<path d="M7 28.875C7 27.2174 7.65848 25.6277 8.83058 24.4556C10.0027 23.2835 11.5924 22.625 13.25 22.625H25.75C27.4076 22.625 28.9973 23.2835 30.1694 24.4556C31.3415 25.6277 32 27.2174 32 28.875C32 29.7038 31.6708 30.4987 31.0847 31.0847C30.4987 31.6708 29.7038 32 28.875 32H10.125C9.2962 32 8.50134 31.6708 7.91529 31.0847C7.32924 30.4987 7 29.7038 7 28.875Z" stroke="#580DA3" stroke-width="2" stroke-linejoin="round"/>
<path d="M19.5 16.375C22.0888 16.375 24.1875 14.2763 24.1875 11.6875C24.1875 9.09867 22.0888 7 19.5 7C16.9112 7 14.8125 9.09867 14.8125 11.6875C14.8125 14.2763 16.9112 16.375 19.5 16.375Z" stroke="#580DA3" stroke-width="2"/>
</svg>
